<svg xmlns:dc="http://purl.org/dc/elements/1.1/" xmlns:cc="http://creativecommons.org/ns#" xmlns:rdf="http://www.w3.org/1999/02/22-rdf-syntax-ns#" xmlns:svg="http://www.w3.org/2000/svg" xmlns="http://www.w3.org/2000/svg" xmlns:sodipodi="http://sodipodi.sourceforge.net/DTD/sodipodi-0.dtd" xmlns:inkscape="http://www.inkscape.org/namespaces/inkscape" viewBox="0 0 490.83374 248.03751" height="248.03751" width="490.83374" xml:space="preserve" version="1.1" id="logo_1" inkscape:version="0.91 r13725" sodipodi:docname="Logo_Ikigai.svg" is="gwd-image" source="assets/Logo_Ikigai_4.svg" class="gwd-img-zucg gwd-img-o0ki" src="assets/Logo_Ikigai_4.svg" data-gwd-node="true" gwd-svg-index="1" style=""><sodipodi:namedview pagecolor="#ffffff" bordercolor="#666666" borderopacity="1" objecttolerance="10" gridtolerance="10" guidetolerance="10" inkscape:pageopacity="0" inkscape:pageshadow="2" inkscape:window-width="1920" inkscape:window-height="1017" id="namedview3421" showgrid="false" inkscape:zoom="3.4188378" inkscape:cx="245.41687" inkscape:cy="135.71864" inkscape:window-x="-8" inkscape:window-y="-8" inkscape:window-maximized="1" inkscape:current-layer="svg2" data-gwd-node="true"></sodipodi:namedview><metadata id="metadata8" data-gwd-node="true"><rdf:rdf data-gwd-node="true"><cc:work rdf:about="" data-gwd-node="true"><dc:format data-gwd-node="true">image/svg+xml</dc:format><dc:type rdf:resource="http://purl.org/dc/dcmitype/StillImage" data-gwd-node="true"></dc:type></cc:work></rdf:rdf></metadata><defs id="defs6" data-gwd-node="true"><clipPath id="clipPath16" clipPathUnits="userSpaceOnUse" data-gwd-node="true"><path id="path18" d="m 0,198.43 392.667,0 L 392.667,0 0,0 0,198.43 Z" data-gwd-node="true"></path></clipPath></defs><g transform="matrix(1.25,0,0,-1.25,0,248.0375)" id="g10" style="stroke:#ffffff;stroke-opacity:0.94117647;fill:#ffffff" data-gwd-node="true"><g id="g12" style="stroke:#ffffff;stroke-opacity:0.94117647;fill:#ffffff" data-gwd-node="true"><g clip-path="url(#clipPath16)" id="g14" style="stroke:#ffffff;stroke-opacity:0.94117647;fill:#ffffff" data-gwd-node="true"><g transform="translate(279.0016,41.8667)" id="g20" style="stroke:#ffffff;stroke-opacity:0.94117647;fill:#ffffff" data-gwd-node="true"><path id="path22" style="fill:#ffffff;fill-opacity:1;fill-rule:nonzero;stroke:#ffffff;stroke-opacity:0.94117647" d="m 0,0 -15.887,1.007 c -0.525,-0.315 -0.52,-1.359 0,-1.567 L 0,0 Z" data-gwd-node="true"></path></g><g transform="translate(115.6276,41.8667)" id="g24" style="stroke:#ffffff;stroke-opacity:0.94117647;fill:#ffffff" data-gwd-node="true"><path id="path26" style="fill:#ffffff;fill-opacity:1;fill-rule:nonzero;stroke:#ffffff;stroke-opacity:0.94117647" d="m 0,0 15.887,1.007 c 0.525,-0.315 0.52,-1.359 0,-1.567 L 0,0 Z" data-gwd-node="true"></path></g><g transform="translate(136.953,44.8309)" id="g28" style="stroke:#ffffff;stroke-opacity:0.94117647;fill:#ffffff" data-gwd-node="true"><path id="path30" style="fill:#ffffff;fill-opacity:1;fill-rule:nonzero;stroke:#ffffff;stroke-opacity:0.94117647" d="m 0,0 4.113,0 0,-1.153 -2.921,0 0,-1.194 2.57,0 0,-1.152 -2.57,0 0,-1.237 2.96,0 0,-1.153 L 0,-5.889 0,0 Z" data-gwd-node="true"></path></g><g transform="translate(143.1147,41.9369)" id="g32" style="stroke:#ffffff;stroke-opacity:0.94117647;fill:#ffffff" data-gwd-node="true"><path id="path34" style="fill:#ffffff;fill-opacity:1;fill-rule:nonzero;stroke:#ffffff;stroke-opacity:0.94117647" d="m 0,0 -1.823,2.894 1.402,0 1.145,-1.91 1.153,1.91 1.363,0 -1.822,-2.877 1.9,-3.012 -1.402,0 -1.223,2.019 -1.23,-2.019 -1.364,0 L 0,0 Z" data-gwd-node="true"></path></g><g transform="translate(146.153,41.8864)" id="g36" style="stroke:#ffffff;stroke-opacity:0.94117647;fill:#ffffff" data-gwd-node="true"><path id="path38" style="fill:#ffffff;fill-opacity:1;fill-rule:nonzero;stroke:#ffffff;stroke-opacity:0.94117647" d="m 0,0 c 0,1.674 1.168,3.046 2.843,3.046 1.028,0 1.605,-0.421 2.111,-0.96 L 4.238,1.195 C 3.817,1.607 3.459,1.851 2.835,1.851 1.916,1.851 1.254,1.026 1.254,0 c 0,-1.009 0.646,-1.85 1.581,-1.85 0.624,0 1.005,0.269 1.434,0.689 L 5.032,-2.044 C 4.471,-2.692 3.848,-3.045 2.796,-3.045 1.191,-3.045 0,-1.707 0,0" data-gwd-node="true"></path></g><g transform="translate(151.598,44.8309)" id="g40" style="stroke:#ffffff;stroke-opacity:0.94117647;fill:#ffffff" data-gwd-node="true"><path id="path42" style="fill:#ffffff;fill-opacity:1;fill-rule:nonzero;stroke:#ffffff;stroke-opacity:0.94117647" d="m 0,0 4.113,0 0,-1.153 -2.922,0 0,-1.194 2.571,0 0,-1.152 -2.571,0 0,-1.237 2.961,0 0,-1.153 L 0,-5.889 0,0 Z" data-gwd-node="true"></path></g><g transform="translate(158.4209,41.8611)" id="g44" style="stroke:#ffffff;stroke-opacity:0.94117647;fill:#ffffff" data-gwd-node="true"><path id="path46" style="fill:#ffffff;fill-opacity:1;fill-rule:nonzero;stroke:#ffffff;stroke-opacity:0.94117647" d="M 0,0 C 0.6,0 0.95,0.387 0.95,0.909 0.95,1.489 0.577,1.8 -0.023,1.8 L -0.95,1.8 -0.95,0 0,0 Z m -2.15,2.97 2.228,0 c 1.301,0 2.088,-0.833 2.088,-2.053 0,-1.363 -0.982,-2.069 -2.205,-2.069 l -0.911,0 0,-1.767 -1.2,0 0,5.889 z" data-gwd-node="true"></path></g><g transform="translate(162.1993,43.6361)" id="g48" style="stroke:#ffffff;stroke-opacity:0.94117647;fill:#ffffff" data-gwd-node="true"><path id="path50" style="fill:#ffffff;fill-opacity:1;fill-rule:nonzero;stroke:#ffffff;stroke-opacity:0.94117647" d="m 0,0 -1.659,0 0,1.195 4.518,0 L 2.859,0 1.2,0 1.2,-4.694 0,-4.694 0,0 Z" data-gwd-node="true"></path></g><path id="path52" style="fill:#ffffff;fill-opacity:1;fill-rule:nonzero;stroke:#ffffff;stroke-opacity:0.94117647" d="m 165.486,44.831 1.2,0 0,-5.889 -1.2,0 0,5.889 z" data-gwd-node="true"></path><g transform="translate(171.804,41.8864)" id="g54" style="stroke:#ffffff;stroke-opacity:0.94117647;fill:#ffffff" data-gwd-node="true"><path id="path56" style="fill:#ffffff;fill-opacity:1;fill-rule:nonzero;stroke:#ffffff;stroke-opacity:0.94117647" d="m 0,0 c 0,1.01 -0.686,1.851 -1.652,1.851 -0.966,0 -1.635,-0.825 -1.635,-1.851 0,-1.009 0.685,-1.85 1.651,-1.85 C -0.67,-1.85 0,-1.026 0,0 m -4.541,0 c 0,1.674 1.223,3.046 2.905,3.046 1.683,0 2.89,-1.355 2.89,-3.046 0,-1.674 -1.223,-3.045 -2.906,-3.045 -1.682,0 -2.889,1.355 -2.889,3.045" data-gwd-node="true"></path></g><g transform="translate(173.5799,44.8309)" id="g58" style="stroke:#ffffff;stroke-opacity:0.94117647;fill:#ffffff" data-gwd-node="true"><path id="path60" style="fill:#ffffff;fill-opacity:1;fill-rule:nonzero;stroke:#ffffff;stroke-opacity:0.94117647" d="m 0,0 1.106,0 2.555,-3.626 0,3.626 1.184,0 0,-5.889 -1.021,0 -2.64,3.744 0,-3.744 L 0,-5.889 0,0 Z" data-gwd-node="true"></path></g><g transform="translate(182.3198,41.4073)" id="g62" style="stroke:#ffffff;stroke-opacity:0.94117647;fill:#ffffff" data-gwd-node="true"><path id="path64" style="fill:#ffffff;fill-opacity:1;fill-rule:nonzero;stroke:#ffffff;stroke-opacity:0.94117647" d="M 0,0 -0.724,1.91 -1.449,0 0,0 Z m -1.262,3.465 1.107,0 2.336,-5.93 -1.254,0 -0.498,1.321 -2.306,0 -0.499,-1.321 -1.223,0 2.337,5.93 z" data-gwd-node="true"></path></g><g transform="translate(184.7969,44.8309)" id="g66" style="stroke:#ffffff;stroke-opacity:0.94117647;fill:#ffffff" data-gwd-node="true"><path id="path68" style="fill:#ffffff;fill-opacity:1;fill-rule:nonzero;stroke:#ffffff;stroke-opacity:0.94117647" d="m 0,0 1.199,0 0,-4.711 2.719,0 0,-1.178 L 0,-5.889 0,0 Z" data-gwd-node="true"></path></g><g transform="translate(190.3191,39.7416)" id="g70" style="stroke:#ffffff;stroke-opacity:0.94117647;fill:#ffffff" data-gwd-node="true"><path id="path72" style="fill:#ffffff;fill-opacity:1;fill-rule:nonzero;stroke:#ffffff;stroke-opacity:0.94117647" d="M 0,0 0.756,0.908 C 1.068,0.538 1.371,0.32 1.753,0.32 c 0.452,0 0.732,0.294 0.732,0.975 l 0,3.794 1.231,0 0,-3.852 C 3.716,0.538 3.529,0.017 3.202,-0.337 2.867,-0.698 2.376,-0.883 1.784,-0.883 0.935,-0.883 0.374,-0.48 0,0" data-gwd-node="true"></path></g><g transform="translate(197.6493,41.4073)" id="g74" style="stroke:#ffffff;stroke-opacity:0.94117647;fill:#ffffff" data-gwd-node="true"><path id="path76" style="fill:#ffffff;fill-opacity:1;fill-rule:nonzero;stroke:#ffffff;stroke-opacity:0.94117647" d="M 0,0 -0.724,1.91 -1.449,0 0,0 Z m -1.262,3.465 1.107,0 2.336,-5.93 -1.254,0 -0.498,1.321 -2.306,0 -0.499,-1.321 -1.223,0 2.337,5.93 z" data-gwd-node="true"></path></g><g transform="translate(202.2765,41.8611)" id="g78" style="stroke:#ffffff;stroke-opacity:0.94117647;fill:#ffffff" data-gwd-node="true"><path id="path80" style="fill:#ffffff;fill-opacity:1;fill-rule:nonzero;stroke:#ffffff;stroke-opacity:0.94117647" d="M 0,0 C 0.6,0 0.95,0.387 0.95,0.909 0.95,1.489 0.577,1.8 -0.023,1.8 L -0.95,1.8 -0.95,0 0,0 Z m -2.15,2.97 2.228,0 c 1.301,0 2.088,-0.833 2.088,-2.053 0,-1.363 -0.982,-2.069 -2.205,-2.069 l -0.911,0 0,-1.767 -1.2,0 0,5.889 z" data-gwd-node="true"></path></g><g transform="translate(207.3707,41.4073)" id="g82" style="stroke:#ffffff;stroke-opacity:0.94117647;fill:#ffffff" data-gwd-node="true"><path id="path84" style="fill:#ffffff;fill-opacity:1;fill-rule:nonzero;stroke:#ffffff;stroke-opacity:0.94117647" d="M 0,0 -0.724,1.91 -1.449,0 0,0 Z m -1.262,3.465 1.107,0 2.336,-5.93 -1.254,0 -0.498,1.321 -2.306,0 -0.499,-1.321 -1.223,0 2.337,5.93 z" data-gwd-node="true"></path></g><g transform="translate(209.8483,44.8309)" id="g86" style="stroke:#ffffff;stroke-opacity:0.94117647;fill:#ffffff" data-gwd-node="true"><path id="path88" style="fill:#ffffff;fill-opacity:1;fill-rule:nonzero;stroke:#ffffff;stroke-opacity:0.94117647" d="m 0,0 1.106,0 2.555,-3.626 0,3.626 1.184,0 0,-5.889 -1.021,0 -2.64,3.744 0,-3.744 L 0,-5.889 0,0 Z" data-gwd-node="true"></path></g><g transform="translate(215.457,44.8309)" id="g90" style="stroke:#ffffff;stroke-opacity:0.94117647;fill:#ffffff" data-gwd-node="true"><path id="path92" style="fill:#ffffff;fill-opacity:1;fill-rule:nonzero;stroke:#ffffff;stroke-opacity:0.94117647" d="m 0,0 4.113,0 0,-1.153 -2.922,0 0,-1.194 2.571,0 0,-1.152 -2.571,0 0,-1.237 2.961,0 0,-1.153 L 0,-5.889 0,0 Z" data-gwd-node="true"></path></g><g transform="translate(219.7562,39.8004)" id="g94" style="stroke:#ffffff;stroke-opacity:0.94117647;fill:#ffffff" data-gwd-node="true"><path id="path96" style="fill:#ffffff;fill-opacity:1;fill-rule:nonzero;stroke:#ffffff;stroke-opacity:0.94117647" d="M 0,0 0.709,0.917 C 1.2,0.48 1.714,0.202 2.337,0.202 c 0.49,0 0.787,0.21 0.787,0.572 0,0.328 -0.187,0.496 -1.099,0.748 -1.098,0.304 -1.807,0.632 -1.807,1.818 0,1.068 0.795,1.775 1.909,1.775 0.794,0 1.472,-0.27 2.025,-0.749 L 3.529,3.39 C 3.046,3.752 2.57,3.97 2.111,3.97 1.652,3.97 1.41,3.743 1.41,3.441 1.41,3.053 1.644,2.928 2.586,2.667 3.692,2.355 4.315,1.926 4.315,0.883 4.315,-0.286 3.49,-0.942 2.313,-0.942 1.488,-0.942 0.654,-0.631 0,0" data-gwd-node="true"></path></g><g transform="translate(224.5704,44.8309)" id="g98" style="stroke:#ffffff;stroke-opacity:0.94117647;fill:#ffffff" data-gwd-node="true"><path id="path100" style="fill:#ffffff;fill-opacity:1;fill-rule:nonzero;stroke:#ffffff;stroke-opacity:0.94117647" d="m 0,0 4.113,0 0,-1.153 -2.922,0 0,-1.194 2.571,0 0,-1.152 -2.571,0 0,-1.237 2.961,0 0,-1.153 L 0,-5.889 0,0 Z" data-gwd-node="true"></path></g><g transform="translate(230.7943,41.8864)" id="g102" style="stroke:#ffffff;stroke-opacity:0.94117647;fill:#ffffff" data-gwd-node="true"><path id="path104" style="fill:#ffffff;fill-opacity:1;fill-rule:nonzero;stroke:#ffffff;stroke-opacity:0.94117647" d="m 0,0 c 0,1.674 1.168,3.046 2.843,3.046 1.028,0 1.605,-0.421 2.111,-0.96 L 4.238,1.195 C 3.817,1.607 3.459,1.851 2.835,1.851 1.916,1.851 1.254,1.026 1.254,0 c 0,-1.009 0.646,-1.85 1.581,-1.85 0.624,0 1.005,0.269 1.434,0.689 L 5.032,-2.044 C 4.471,-2.692 3.848,-3.045 2.796,-3.045 1.191,-3.045 0,-1.707 0,0" data-gwd-node="true"></path></g><g transform="translate(236.1533,41.466)" id="g106" style="stroke:#ffffff;stroke-opacity:0.94117647;fill:#ffffff" data-gwd-node="true"><path id="path108" style="fill:#ffffff;fill-opacity:1;fill-rule:nonzero;stroke:#ffffff;stroke-opacity:0.94117647" d="m 0,0 0,3.365 1.2,0 0,-3.331 c 0,-0.96 0.444,-1.456 1.176,-1.456 0.732,0 1.176,0.48 1.176,1.413 l 0,3.374 1.2,0 0,-3.323 C 4.752,-1.741 3.825,-2.616 2.36,-2.616 0.896,-2.616 0,-1.733 0,0" data-gwd-node="true"></path></g><path id="path110" style="fill:#ffffff;fill-opacity:1;fill-rule:nonzero;stroke:#ffffff;stroke-opacity:0.94117647" d="m 241.638,44.831 1.2,0 0,-5.889 -1.2,0 0,5.889 z" data-gwd-node="true"></path><g transform="translate(243.2809,39.8004)" id="g112" style="stroke:#ffffff;stroke-opacity:0.94117647;fill:#ffffff" data-gwd-node="true"><path id="path114" style="fill:#ffffff;fill-opacity:1;fill-rule:nonzero;stroke:#ffffff;stroke-opacity:0.94117647" d="M 0,0 0.709,0.917 C 1.2,0.48 1.714,0.202 2.337,0.202 c 0.49,0 0.787,0.21 0.787,0.572 0,0.328 -0.187,0.496 -1.099,0.748 -1.098,0.304 -1.807,0.632 -1.807,1.818 0,1.068 0.795,1.775 1.909,1.775 0.794,0 1.472,-0.27 2.025,-0.749 L 3.529,3.39 C 3.046,3.752 2.57,3.97 2.111,3.97 1.652,3.97 1.41,3.743 1.41,3.441 1.41,3.053 1.644,2.928 2.586,2.667 3.692,2.355 4.315,1.926 4.315,0.883 4.315,-0.286 3.49,-0.942 2.313,-0.942 1.488,-0.942 0.654,-0.631 0,0" data-gwd-node="true"></path></g><path id="path116" style="fill:#ffffff;fill-opacity:1;fill-rule:nonzero;stroke:#ffffff;stroke-opacity:0.94117647" d="m 248.15,44.831 1.2,0 0,-5.889 -1.2,0 0,5.889 z" data-gwd-node="true"></path><g transform="translate(250.167,44.8309)" id="g118" style="stroke:#ffffff;stroke-opacity:0.94117647;fill:#ffffff" data-gwd-node="true"><path id="path120" style="fill:#ffffff;fill-opacity:1;fill-rule:nonzero;stroke:#ffffff;stroke-opacity:0.94117647" d="m 0,0 1.106,0 2.555,-3.626 0,3.626 1.184,0 0,-5.889 -1.021,0 -2.64,3.744 0,-3.744 L 0,-5.889 0,0 Z" data-gwd-node="true"></path></g><g transform="translate(255.7757,44.8309)" id="g122" style="stroke:#ffffff;stroke-opacity:0.94117647;fill:#ffffff" data-gwd-node="true"><path id="path124" style="fill:#ffffff;fill-opacity:1;fill-rule:nonzero;stroke:#ffffff;stroke-opacity:0.94117647" d="m 0,0 4.113,0 0,-1.153 -2.922,0 0,-1.194 2.571,0 0,-1.152 -2.571,0 0,-1.237 2.961,0 0,-1.153 L 0,-5.889 0,0 Z" data-gwd-node="true"></path></g><g transform="translate(115.9791,84.1243)" id="g126" style="stroke:#ffffff;stroke-opacity:0.94117647;fill:#ffffff" data-gwd-node="true"><path id="path128" style="fill:#ffffff;fill-opacity:1;fill-rule:nonzero;stroke:#ffffff;stroke-opacity:0.94117647" d="m 0,0 c 0,-27.232 -0.084,-27.076 0.2,-27.645 0.472,-0.955 5.5,-0.953 6.552,-0.953 l 0,-0.5 -20.559,0 0,0.5 c 7.342,0 7.655,0.827 7.655,2.809 0,29.388 0.324,27.515 -0.849,27.947 -0.968,0.367 -3.805,0.551 -6.806,0.551 l 0,0.45 20.609,0 0,-0.45 C 4.879,2.709 2.132,2.673 0.35,1.957 0.117,1.756 0,1.103 0,0" data-gwd-node="true"></path></g><g transform="translate(183.8897,58.3356)" id="g130" style="stroke:#ffffff;stroke-opacity:0.94117647;fill:#ffffff" data-gwd-node="true"><path id="path132" style="fill:#ffffff;fill-opacity:1;fill-rule:nonzero;stroke:#ffffff;stroke-opacity:0.94117647" d="m 0,0 c 0,-1.924 0.167,-2.003 0.801,-2.258 0.966,-0.367 3.804,-0.551 6.805,-0.551 l 0,-0.5 -20.559,0 0,0.5 c 7.291,0 6.802,0.802 6.802,2.809 0,29.385 0.326,27.514 -0.85,27.946 -0.968,0.367 -2.951,0.552 -5.952,0.552 l 0,0.45 20.609,0 0,-0.45 C 5.74,28.498 2.136,28.463 0.35,27.745 -0.136,27.327 0,27.261 0,0" data-gwd-node="true"></path></g><g transform="translate(284.8017,58.3356)" id="g134" style="stroke:#ffffff;stroke-opacity:0.94117647;fill:#ffffff" data-gwd-node="true"><path id="path136" style="fill:#ffffff;fill-opacity:1;fill-rule:nonzero;stroke:#ffffff;stroke-opacity:0.94117647" d="M 0,0 C 0,-0.97 0.066,-1.589 0.199,-1.856 0.673,-2.81 6.537,-2.809 7.605,-2.809 l 0,-0.5 -20.558,0 0,0.5 c 1.686,0 6.055,0.022 6.626,1.078 0.249,0.463 0.175,0.261 0.175,27.52 0,1.812 -0.144,1.898 -0.85,2.157 -0.968,0.367 -3.805,0.552 -6.805,0.552 l 0,0.45 21.462,0 0,-0.45 c -1.916,0 -5.52,-0.035 -7.306,-0.753 C -0.146,27.319 0,27.099 0,0" data-gwd-node="true"></path></g><g transform="translate(204.069,68.313)" id="g138" style="stroke:#ffffff;stroke-opacity:0.94117647;fill:#ffffff" data-gwd-node="true"><path id="path140" style="fill:#ffffff;fill-opacity:1;fill-rule:nonzero;stroke:#ffffff;stroke-opacity:0.94117647" d="m 0,0 c -1.254,6.665 0.02,19.96 7.835,19.96 4.232,0 10.09,-3.683 11.623,-14.403 l 0.43,0 0,14.878 -2.698,-5.54 C 13.693,20.174 9.184,22.137 3.864,19.2 -0.291,16.236 -2.684,5.891 0,0" data-gwd-node="true"></path></g><g transform="translate(198.4704,83.0525)" id="g142" style="stroke:#ffffff;stroke-opacity:0.94117647;fill:#ffffff" data-gwd-node="true"><path id="path144" style="fill:#ffffff;fill-opacity:1;fill-rule:nonzero;stroke:#ffffff;stroke-opacity:0.94117647" d="M 0,0 C -7.331,-13.418 -0.2,-30.011 11.764,-30.755 2.973,-24.369 -0.88,-8.772 0,0" data-gwd-node="true"></path></g><g transform="translate(214.3502,71.3799)" id="g146" style="stroke:#ffffff;stroke-opacity:0.94117647;fill:#ffffff" data-gwd-node="true"><path id="path148" style="fill:#ffffff;fill-opacity:1;fill-rule:nonzero;stroke:#ffffff;stroke-opacity:0.94117647" d="m 0,0 0,-0.45 c 0.979,0 3.825,-0.171 4.651,-0.502 1.004,-0.406 0.8,0.321 0.8,-7.522 0,-7.265 -7.501,-8.439 -9.953,-7.54 0.204,-0.276 0.413,-0.55 0.627,-0.822 7.65,-0.64 8.303,3.542 12.454,3.542 1.751,0 2.274,-2.56 2.274,-4.341 l 0.4,0 c 0,14.025 -0.103,15.658 0.3,16.333 0.352,0.587 5.021,0.852 5.701,0.852 L 17.254,0 0,0 Z" data-gwd-node="true"></path></g><g transform="translate(212.1849,55.1066)" id="g150" style="stroke:#ffffff;stroke-opacity:0.94117647;fill:#ffffff" data-gwd-node="true"><path id="path152" style="fill:#ffffff;fill-opacity:1;fill-rule:nonzero;stroke:#ffffff;stroke-opacity:0.94117647" d="m 0,0 c -1.536,-0.238 -5.605,4.349 -5.605,4.349 1.679,-2.344 2.61,-3.633 3.917,-4.912 L 0,0 Z" data-gwd-node="true"></path></g><g transform="translate(166.3481,86.8336)" id="g154" style="stroke:#ffffff;stroke-opacity:0.94117647;fill:#ffffff" data-gwd-node="true"><path id="path156" style="fill:#ffffff;fill-opacity:1;fill-rule:nonzero;stroke:#ffffff;stroke-opacity:0.94117647" d="m 0,0 0,0.45 -14.053,0 0,-0.45 c 2.207,0 5.501,-0.307 5.501,-2.515 0,-2.031 -1.805,-3.369 -13.804,-15.339 0,15.865 -0.131,16.684 0.351,17.1 0.688,0.276 1.527,0.754 6.402,0.754 l 0,0.45 -19.705,0 0,-0.45 c 3,0 4.984,-0.185 5.951,-0.552 0.68,-0.249 0.85,-0.303 0.85,-2.157 0,-27.278 0.136,-27.327 -0.35,-27.746 -1.796,-0.719 -4.521,-0.852 -6.451,-0.852 l 0,-0.5 19.254,0 0,0.5 c -1.002,0 -5.657,0.06 -6.101,0.954 -0.267,0.534 -0.201,1.362 -0.201,11.499 C -6.36,-3.425 -5.344,0 0,0" data-gwd-node="true"></path></g><g transform="translate(161.897,58.2826)" id="g158" style="stroke:#ffffff;stroke-opacity:0.94117647;fill:#ffffff" data-gwd-node="true"><path id="path160" style="fill:#ffffff;fill-opacity:1;fill-rule:nonzero;stroke:#ffffff;stroke-opacity:0.94117647" d="m 0,0 -8.29,15.662 -4.372,-4.04 c 7.249,-14.088 6.811,-13.119 6.811,-13.527 0,-0.854 -1.296,-0.901 -5.052,-0.901 l 0,-0.45 17.354,0 0,0.45 C 1.905,-2.806 1.439,-2.679 0,0" data-gwd-node="true"></path></g><g transform="translate(263.1858,55.9016)" id="g162" style="stroke:#ffffff;stroke-opacity:0.94117647;fill:#ffffff" data-gwd-node="true"><path id="path164" style="fill:#ffffff;fill-opacity:1;fill-rule:nonzero;stroke:#ffffff;stroke-opacity:0.94117647" d="m 0,0 c -1.076,0.513 -0.831,1.36 -12.9,32.636 l -1.049,0 -9.717,-24.396 c -2.165,-5.719 -4.082,-8.615 -9.338,-8.615 l 0,-0.5 15.111,0 0,0.5 c -8.471,0 -6.874,4.017 -4.267,10.752 l 5.626,0 -0.209,0.551 -5.156,0 5.646,13.587 c 5.928,-16.807 3.477,-9.998 6.425,-17.742 L -9.84,6.771 -7.865,1.534 c 0.324,-1.554 -0.609,-1.909 -6.766,-1.909 l 0,-0.5 19.351,0 0,0.5 C 2.098,-0.375 0.525,-0.25 0,0" data-gwd-node="true"></path></g><g transform="translate(212.6238,133.1894)" id="g166" style="stroke:#ffffff;stroke-opacity:0.94117647;fill:#ffffff" data-gwd-node="true"><path id="path168" style="fill:#ffffff;fill-opacity:1;fill-rule:nonzero;stroke:#ffffff;stroke-opacity:0.94117647" d="m 0,0 c 0,-1.089 -0.883,-1.972 -1.972,-1.972 -1.089,0 -1.972,0.883 -1.972,1.972 0,1.089 0.883,1.972 1.972,1.972 C -0.883,1.972 0,1.089 0,0" data-gwd-node="true"></path></g><g transform="translate(220.1223,135.2378)" id="g170" style="stroke:#ffffff;stroke-opacity:0.94117647;fill:#ffffff" data-gwd-node="true"><path id="path172" style="fill:#ffffff;fill-opacity:1;fill-rule:nonzero;stroke:#ffffff;stroke-opacity:0.94117647" d="M 0,0 C -6.181,3.823 -13.767,0.804 -19.044,-4.154 -12.214,-6.547 -4.101,-6 0,0 m -20.034,-8.094 c 2.404,-6.825 7.876,-12.839 15.126,-12.289 -0.882,7.216 -7.959,11.272 -15.126,12.289 m 6.805,24.861 c -6.806,-2.552 -9.217,-10.344 -8.523,-17.549 6.088,3.951 10.756,10.645 8.523,17.549 M -23.611,-9.767 c -3.823,-6.147 -5.234,-14.223 -0.271,-19.534 5.077,5.199 3.962,13.304 0.271,19.534 m -10.548,26.494 c -2.265,-6.904 2.322,-13.668 8.38,-17.634 0.723,7.203 -1.585,15.055 -8.38,17.634 m 6.819,-24.733 c -7.186,-0.861 -14.327,-4.873 -15.368,-12.069 7.234,-0.709 12.816,5.295 15.368,12.069 m -0.894,3.964 c -5.166,5.067 -12.785,8.116 -19.05,4.427 3.971,-6.088 12.168,-6.673 19.05,-4.427 m -20.247,3.646 c -5.088,-3.649 -8.114,-11.995 -8.114,-11.995 0,0 6.233,-6.293 12.474,-7.479 1.175,8.15 7.875,11.522 16.032,12.342 l 1.456,0.096 -0.401,-1.438 c -2.745,-7.732 -7.619,-13.43 -15.814,-12.627 -0.335,-6.252 4.295,-13.882 4.295,-13.882 0,0 8.798,0.976 13.627,5.103 -5.624,6.014 -4.064,13.351 0.398,20.229 l 0.917,1.187 0.79,-1.203 c 4.314,-6.975 5.715,-14.345 -0.038,-20.235 4.669,-4.168 13.556,-5.33 13.556,-5.33 0,0 4.702,7.473 4.502,13.821 -8.209,-0.626 -12.958,5.178 -15.534,12.963 l -0.4,1.319 1.48,0.003 c 8.203,-1.004 14.768,-4.549 15.765,-12.688 6.176,1.034 12.62,7 12.62,7 0,0 -2.872,8.588 -7.951,12.403 -4.647,-6.798 -12.147,-6.871 -19.831,-4.013 l -1.295,0.511 0.939,1.159 c 5.871,5.729 12.757,8.698 19.759,4.365 3.269,5.851 2.151,14.505 2.151,14.505 0,0 -8.145,3.306 -14.76,1.486 C -7.809,5.009 -22.144,-1.59 -22.144,-1.59 c 0,0 -3.563,15.282 8.425,19.695 -2.455,5.76 -9.892,10.568 -9.892,10.568 0,0 -7.548,-4.753 -10.064,-10.586 11.953,-4.324 8.276,-19.789 8.276,-19.789 0,0 -14.257,6.818 -10.142,18.898 -6.028,1.684 -14.364,-1.049 -14.364,-1.049 0,0 -1.08,-8.921 1.897,-14.531 7.092,4.18 13.914,1.062 19.657,-4.79 l 0.998,-1.095 -1.385,-0.568 c -7.749,-2.694 -15.245,-2.456 -19.743,4.441 M -59.868,-17.32 c -0.018,0.018 0.267,2.9 0.915,4.698 1.694,4.693 5.032,10.136 9.74,13.458 -2.417,4.468 -3.226,10.475 -3.092,15.506 l -3.685,-1.049 c 0,0 0.703,0.863 3.848,2.098 2.415,0.949 5.404,1.822 8.422,1.943 3.263,0.131 6.195,-0.067 8.696,-0.788 1.973,4.676 6.136,9.059 10.151,12.105 l -3.094,2.23 c 0,-0.007 9.661,-2.002 15.61,-14.33 5.267,1.494 12.327,0.743 16.842,-0.637 l 0.552,2.824 C 5.041,20.667 5.322,18.14 5.359,17.561 5.545,14.701 5.176,11.058 4.749,8.664 4.176,5.449 3.226,2.673 1.938,0.41 6.021,-2.606 9.306,-7.696 11.324,-12.313 l 2.93,2.59 c 0,0 -0.325,-1.212 -2.703,-3.718 -1.786,-1.882 -4.1,-3.907 -6.729,-5.228 -2.917,-1.466 -5.627,-2.559 -8.198,-2.969 0.201,-5.076 -1.721,-10.826 -4.058,-15.282 l 3.433,-0.896 c 0,-0.018 -1.926,-0.065 -3.848,0.106 -5.935,0.529 -11.66,2.441 -16.054,6.428 -3.839,-3.333 -9.525,-5.429 -14.461,-6.392 l 1.723,-3.345 c 0,0 -0.96,0.662 -2.888,3.562 -1.456,2.189 -2.931,4.864 -3.623,7.512 -0.827,3.158 -1.273,6.049 -1.114,8.648 -4.999,0.908 -10.194,4.036 -14.033,7.285 l -1.569,-3.308 z" data-gwd-node="true"></path></g></g></g></g></svg>